<svg id="Capa_1" enable-background="new 0 0 497 497" height="512" viewBox="0 0 497 497" width="512" xmlns="http://www.w3.org/2000/svg"><path d="m334.144 32.226c-15.592 29.516-4.304 66.083 25.212 81.675 24.952 13.181 54.943 7.152 73.041-12.86 5.251-5.807 3.577-15.023-3.345-18.68z" fill="#ffaa3e"/><path d="m329.835 78.285c-9.846-31.896 8.029-65.735 39.925-75.58 26.964-8.323 55.317 3.164 69.388 26.186 4.083 6.68.728 15.426-6.753 17.735z" fill="#ffbe6b"/><path d="m365.812 88.911c-46.501 16.268-103.656-36.816-75.76-85.41-22.81 1.473-43.955 13.302-54.574 31.206-10.924 18.418-4.246 39.167-12.835 57.964-22.101 48.37-57.892 94.713-85.97 140.65-25.383 41.527-62.748 80.558-49.77 128.69 6.517 24.17 9.283 69.843 39.367 81.725 40.137 15.852 107.659-25.433 136.53-46.605 99.991-73.328 131.269-197.495 103.767-305.376-.26-.94-.51-1.89-.755-2.844z" fill="#00c272"/><path d="m195.5 143.5c-16.569 25.82-43.362 64.519-58.827 89.821-25.383 41.527-62.748 80.558-49.77 128.69 6.517 24.17 9.283 69.843 39.368 81.725 30.013 11.854 68.338-6.384 99.972-23.123 9.817-17.765 104.59-256.446-30.743-277.113z" fill="#00b472"/><path d="m447.233 427.974c19.061 0 34.513 15.452 34.513 34.513 0 19.061-15.452 34.513-34.513 34.513h-397.466c-19.061 0-34.513-15.452-34.513-34.513 0-19.061 15.452-34.513 34.513-34.513z" fill="#e7886e"/><path d="m352.383 460.698h129.317c-.931-18.229-16.006-32.724-34.467-32.724h-397.466c-19.061 0-34.513 15.452-34.513 34.513 0 19.061 15.452 34.513 34.513 34.513h266.315c-.001-20.049 16.252-36.302 36.301-36.302z" fill="#dc6646"/><path d="m333.952 98.516c11.781 0 22.731-3.541 31.86-9.605-9.272-36.117-8.449-81.58-66.034-85.405-3.259-.216-6.509-.213-9.727-.005-8.572 10.064-13.757 23.101-13.757 37.357 0 31.844 25.815 57.658 57.658 57.658z" fill="#f9ef80"/><ellipse cx="301.454" cy="71.058" fill="#ffa2ad" rx="25.159" ry="20.128"/><path d="m266.832 466.815c-10.608 0-19.287-8.679-19.287-19.287v-39.107c0-10.608 8.679-19.287 19.287-19.287 10.608 0 19.287 8.679 19.287 19.287v39.107c0 10.608-8.679 19.287-19.287 19.287z" fill="#ffbe6b"/><path d="m228.257 466.815c-10.608 0-19.287-8.679-19.287-19.287v-39.107c0-10.608 8.679-19.287 19.287-19.287 10.608 0 19.287 8.679 19.287 19.287v39.107c.001 10.608-8.679 19.287-19.287 19.287z" fill="#ffaa3e"/><path d="m319.311 64.105c-4.143 0-7.5-3.358-7.5-7.5v-9.019c0-4.142 3.357-7.5 7.5-7.5s7.5 3.358 7.5 7.5v9.019c0 4.142-3.358 7.5-7.5 7.5z" fill="#333942"/><path d="m272.021 150.487c23.595 69.669-6.958 143.375-65.881 184.307-33.999 23.618-142.678 68.703-162.792 9.196-28.528-84.395 188.841-311.115 228.673-193.503z" fill="#2bcf69"/></svg>