<svg height="512" viewBox="0 0 49 59" width="512" xmlns="http://www.w3.org/2000/svg"><g id="Page-1" fill="none" fill-rule="evenodd"><g id="017---Pirate-Parrot" fill-rule="nonzero" transform="translate(-1)"><path id="Shape" d="m40 58c-.4583065-.0004704-.8576317-.3124303-.969-.757l-2.095-8.36c-.0984552-.3503448.0011868-.726518.2601644-.9821848.2589776-.2556667.6364017-.3504607.9854507-.2475062.3490491.1029546.614613.3874026.6933849.742691l2.1 8.361c.1341901.535714-.1912929 1.0787826-.727 1.213-.0811343.0200738-.1644194.0301486-.248.03z" fill="#efc319"/><path id="Shape" d="m32 58c-.0819433.0003256-.1635963-.009755-.243-.03-.2574064-.0640269-.4788295-.2276978-.6155476-.4549986-.136718-.2273008-.1775288-.4996074-.1134524-.7570014l1.838-7.358c.0866369-.3469049.3517643-.621238.6955112-.7196607.3437469-.0984226.71389-.0059822.971.2425s.3621257.6152558.2754888.9621607l-1.837 7.36c-.112325.4444986-.5125292.755677-.971.755z" fill="#efc319"/><path id="Shape" d="m38 30.95 5.9-2.73c3.9386435 4.895813 4.1329703 11.8160578.4752747 16.925183-3.6576956 5.1091251-10.2713235 7.155458-16.1752747 5.004817z" fill="#f8e9af"/><path id="Shape" d="m41 43.994c-.3787721 0-.7250352-.2140024-.8944272-.5527864s-.132836-.744196.0944272-1.0472136c1.7366999-2.3180391 2.2538413-5.3293644 1.39-8.094-.1656854-.5268796.1271204-1.0883145.654-1.2539999.5268796-.1656855 1.0883145.1271203 1.254.6539999 1.0560059 3.379574.4235042 7.0607336-1.7 9.894-.1884317.2512436-.4839467.3993714-.798.4z" fill="#e3bf5c"/><path id="Shape" d="m38 30.95v4.45c.0021754 6.4416886-3.8607727 12.2558197-9.8 14.75h-.01c-.4.17-.81.33-1.22.46l-22.31 7.3c-1.07141359.3366806-2.21294234-.258705-2.55-1.33-.0178638-.0418076-.0312712-.0853816-.04-.13-.03907222-.1638207-.05920408-.3315862-.06-.5-.00171569-.8993452.58823646-1.6927291 1.45-1.95v-.02c-.12467095.0281212-.25220618.041546-.38.04-1.02478135.0013917-1.89788202-.7438333-2.05745363-1.7561157s.44193877-1.9899583 1.41745363-2.3038843c0 0 15.17-4.37 19.41-11.21l1.91-3.11c1.4628818-2.3825828 3.5662734-4.3057826 6.07-5.55l1.58-.8h.01z" fill="#bf3a2b"/><path id="Shape" d="m12.44 52.94-10.33 3.64c-.0178638-.0418076-.0312712-.0853816-.04-.13-.03907222-.1638207-.05920408-.3315862-.06-.5-.00171569-.8993452.58823646-1.6927291 1.45-1.95v-.01l8.32-2.93c.3444764-.1556276.7472657-.1037179 1.0410285.1341631.2937627.2378811.4282879.6210741.3476868.9903807-.0806011.3693067-.3625518.6616039-.7287153.7554562z" fill="#802f34"/><path id="Shape" d="m17.2 49c-.4503352-.0001324-.8450264-.3012616-.96411-.7355666s.0668217-.8946301.45411-1.1244334c3.662-2.168 6.26-4.463 7.723-6.823l1.91-3.109c.6948593-1.133427 1.5758786-2.1415619 2.606-2.982.2751716-.2387242.658392-.3089234 1.0003166-.1832403s.5884517.4273621.6435073.7874698-.0900715.7216653-.3788239.9437705c-.8560486.6995519-1.5885647 1.5378722-2.167 2.48l-1.913 3.113c-1.635 2.64-4.463 5.16-8.405 7.493-.1540637.0914164-.3298561.1397679-.509.14z" fill="#e54c3c"/><path id="Shape" d="m27 47.312c-.4706129.0001844-.8776692-.3277938-.9775914-.7876765-.0999221-.4598826.1343336-.9272036.5625914-1.1223235 3.9091658-1.7939311 6.4149625-5.7008646 6.415-10.002 0-.5522847.4477153-1 1-1s1 .4477153 1 1c-.0012259 5.085918-2.966852 9.7044969-7.591 11.822-.1284531.0585309-.2678426.0892034-.409.09z" fill="#e54c3c"/><path id="Shape" d="m45 59c-.1378798-.0003837-.2741463-.029681-.4-.086-1.4670873-.5747423-3.0246312-.8842195-4.6-.914-.8984258.1505432-1.7641306.4550115-2.559.9-.4970563.2430053-1.0969947.0370562-1.34-.46-.2430052-.4970563-.0370562-1.0969947.46-1.34 1.0560463-.6048285 2.2279777-.9796829 3.439-1.1 1.8529764.027887 3.6850591.3959983 5.405 1.086.4316222.1915919.6703837.6590107.5726241 1.1210153-.0977595.4620046-.50539.7926477-.9776241.7929847z" fill="#f19b1f"/><path id="Shape" d="m37 59c-.1378798-.0003837-.2741463-.029681-.4-.086-1.4670873-.5747423-3.0246312-.8842195-4.6-.914-.8984258.1505432-1.7641306.4550115-2.559.9-.4970563.2430053-1.0969947.0370562-1.34-.46-.2430052-.4970563-.0370562-1.0969947.46-1.34 1.0560463-.6048285 2.2279777-.9796829 3.439-1.1 1.8529764.027887 3.6850591.3959983 5.405 1.086.4316222.1915919.6703837.6590107.5726241 1.1210153-.0977595.4620046-.50539.7926477-.9776241.7929847z" fill="#f19b1f"/><path id="Shape" d="m28.2 16.26c-.3981103.1039726-.8192145.075899-1.2-.08l-4.7-1.9c-.5638039-.2334981-.9981536-.7006977-1.19-1.28-.2080182-.6063704-.1230634-1.2749273.23-1.81l2.15-3.23c-.0632657-.17804252-.1068585-.36247355-.13-.55v-.02c-.1622678-.91181142.0784635-1.84920447.66-2.57.12-.15.26-.31.42-.48 1.6538957-1.59227939 3.6675304-2.7620399 5.87-3.41 2.1441414-.81307587 4.4550004-1.08776936 6.73-.8.2123304.02661161.4227546.06669242.63.12.9108326.23557894 1.6738683.85622995 2.09 1.7.0801899.15877558.1503279.32243109.21.49l3.67 1.29c.6026106.21202343 1.0721012.69260433 1.27 1.3.1993571.57818457.1334932 1.2148689-.18 1.74l-2.76 4.36c-.2130943.331188-.519223.5920931-.88.75z" fill="#464f5d"/><path id="Shape" d="m25.6 10.96c-.1004574.0312064-.2048254.04804-.31.05-.4319651-.0021836-.8143169-.2798918-.95-.69l-.98-2.91v-.02c-.1622678-.91181142.0784635-1.84920447.66-2.57.12-.15.26-.31.42-.48l1.79 5.35c.0855507.25193645.0671743.5275791-.0510626.7659296-.1182368.2383504-.3265848.4197553-.5789374.5040704z" fill="#393f4a"/><path id="Shape" d="m39.95 5.68c-.1004574.03120644-.2048254.04804-.31.05-.4299159.00110976-.8124279-.27268828-.95-.68l-1.65-4.92c.2123304.02661161.4227546.06669242.63.12.9108326.23557894 1.6738683.85622995 2.09 1.7l.82 2.46c.0855507.25193645.0671743.52757913-.0510626.76592958-.1182368.23835046-.3265848.41975528-.5789374.50407042z" fill="#393f4a"/><path id="Shape" d="m34.446 6.852-.939-.468.468-.938c.1727038-.32113908.1569215-.71082485-.0411863-1.01694605-.1981079-.30612121-.5471341-.48014655-.9108385-.45414639s-.6844267.24790385-.8369752.57909244l-.468.938-.938-.468c-.3201604-.16262541-.7029367-.14110144-1.0028472.05639129-.2999106.19749274-.4709036.54062879-.4479897.89899269.0229138.3583639.236216.67692805.5588369.83461602l.938.468-.468.938c-.1727038.32113908-.1569215.71082485.0411863 1.01694605.1981079.30612121.5471341.48014655.9108385.45414639s.6844267-.24790385.8369752-.57909244l.468-.938.939.468c.493494.24120594 1.0891622.03921402 1.3341516-.45241273s.0475788-1.08882882-.4421516-1.33758727z" fill="#fff"/><path id="Shape" d="m45.65 26c-.4709917.8220295-1.0606727 1.5700819-1.75 2.22-1.6032975 1.5481871-3.6821004 2.5100739-5.9 2.73-.33.03-.66.05-1 .05-1.9896266.0040199-3.9342453-.5919117-5.58-1.71h-.01c-2.7576021-1.8575989-4.4106811-4.9650875-4.41-8.29-.0039298-1.6556443.4087351-3.2856708 1.2-4.74.2581476-.0546752.5028759-.1600443.72-.31 1.6772142-1.1444334 3.5000656-2.0592223 5.42-2.72 1.9360775-.6663101 3.9554258-1.060083 6-1.17.2581961-.0183566.5115968-.0791728.75-.18 1.5832518.7103597 2.9547365 1.8199529 3.98 3.22z" fill="#e54c3c"/><path id="Shape" d="m38 21c.0032971.0904619-.0034103.1810112-.02.27-.0017076.0604477-.008397.1206517-.02.18-.1918942 1.2947957-1.2059806 2.3129385-2.5 2.51h-.01c-.0593483.011603-.1195523.0182924-.18.02-.0889888.0165897-.1795381.0232971-.27.02-1.2133867 0-2.3072956-.7309265-2.7716386-1.8519497s-.2076757-2.4113767.6503183-3.2693706c.8579939-.857994 2.1483474-1.1146613 3.2693706-.6503183s1.8519497 1.5582519 1.8519497 2.7716386z" fill="#464f5d"/><path id="Shape" d="m37.96 21.45c-.1918942 1.2947957-1.2059806 2.3129385-2.5 2.51h-.01c-1.1043669-.1783547-1.8965607-1.1606929-1.8368827-2.2777763.059678-1.1170833.9520231-2.0094284 2.0691064-2.0691064 1.1170834-.059678 2.0994216.7325158 2.2777763 1.8368827z" fill="#fff"/><path id="Shape" d="m46.53 26h-3.53c-1.6568542 0-3-1.3431458-3-3v-1h2.29c1.6354802.0009196 3.1069497.993766 3.72 2.51z" fill="#f19b1f"/><path id="Shape" d="m50 21c-.032928 2.2472992-.9787753 4.3844808-2.62 5.92-.0933606.0732744-.2159579.0978881-.3303661.0663272-.1144083-.0315609-.2070462-.1155498-.2496339-.2263272l-.27-.76-.52-1.49c-.6130503-1.516234-2.0845198-2.5090804-3.72-2.51h-3.29c-.5522847 0-1-.4477153-1-1-.0385151-3.0467109 2.2414913-5.625238 5.27-5.96 1.7045556-.1995633 3.4133761.3367691 4.6981828 1.4745771s2.0238182 2.7692436 2.0318172 4.4854229z" fill="#efc319"/></g></g></svg>